PathFileType  4	(X/Y/Z) C:\Users\antoi\Documents\MyRepositories\mobilecap\ResultsAnalysis
DataRate	CameraRate	NumFrames	NumMarkers	Units	OrigDataRate	OrigDataStartFrame	OrigNumFrames
100.0	100.0	6	51	mm	100.0	94	150
Frame#	Time	r_knee			r_shank_antsup			r_ankle			r_calc			r_5meta			r_toe			L_knee			L_shank_antsup			L_ankle			L_calc			L_5meta			L_toe			r_sh2			r_sh3			r_sh4			L_sh2			L_sh3			r_thigh1			r_thigh2			r_thigh3			r_thigh4			r_thigh5			L_thigh1			L_thigh2			L_thigh3			L_thigh4			r.ASIS			r.PSIS			L.ASIS			L.PSIS			C7			R_Shoulder			L_Shoulder			R_Sternum			L_Sternum			R_humerus			R_elbow_med			R_elbow_lat			R_forearm			R_wrist_radius			R_wrist_ulna			L_humerus			L_elbow_med			L_elbow_lat			L_forearm			L_wrist_radius			L_wrist_ulna			R_HJC			L_HJC			R_HJC_reg			L_HJC_reg			
		X1	Y1	Z1	X2	Y2	Z2	X3	Y3	Z3	X4	Y4	Z4	X5	Y5	Z5	X6	Y6	Z6	X7	Y7	Z7	X8	Y8	Z8	X9	Y9	Z9	X10	Y10	Z10	X11	Y11	Z11	X12	Y12	Z12	X13	Y13	Z13	X14	Y14	Z14	X15	Y15	Z15	X16	Y16	Z16	X17	Y17	Z17	X18	Y18	Z18	X19	Y19	Z19	X20	Y20	Z20	X21	Y21	Z21	X22	Y22	Z22	X23	Y23	Z23	X24	Y24	Z24	X25	Y25	Z25	X26	Y26	Z26	X27	Y27	Z27	X28	Y28	Z28	X29	Y29	Z29	X30	Y30	Z30	X31	Y31	Z31	X32	Y32	Z32	X33	Y33	Z33	X34	Y34	Z34	X35	Y35	Z35	X36	Y36	Z36	X37	Y37	Z37	X38	Y38	Z38	X39	Y39	Z39	X40	Y40	Z40	X41	Y41	Z41	X42	Y42	Z42	X43	Y43	Z43	X44	Y44	Z44	X45	Y45	Z45	X46	Y46	Z46	X47	Y47	Z47	X48	Y48	Z48	X49	Y49	Z49	X50	Y50	Z50	X51	Y51	Z51	

94	0.93000000	1002.91322	552.43850	-9.57589	973.10557	476.02351	1.11518	688.30170	261.40035	-61.67532	618.06610	263.83246	-120.69935	737.90542	110.61856	-17.41311	789.76156	107.71765	-68.20399	932.59996	539.96974	-310.48270	958.55555	419.17994	-320.93282	890.45295	95.06979	-294.19191	818.82562	54.16113	-259.42586	1047.49548	31.24764	-317.02292	1063.06844	59.31525	-249.89376	891.64995	396.66187	-4.29295	918.48574	530.60106	7.92391	830.67053	456.17014	-5.26586	869.66200	433.09467	-335.47801	864.02295	312.77104	-334.12405	985.98753	868.01936	19.14443	1030.93480	767.71901	13.20910	985.33338	720.73197	37.09368	882.57454	821.34897	17.04667	932.25425	715.92033	18.53054	975.69006	867.34495	-336.14644	994.58728	730.73421	-332.50869	860.61575	848.43775	-342.19800	888.48076	710.37056	-340.12783	971.50649	1049.74364	-31.67788	785.09827	1103.22896	-111.81857	981.59092	1047.40830	-289.42727	785.17853	1104.01850	-214.42852	866.47542	1573.84166	-329.58718	896.95889	1603.84334	-145.38618	959.60409	1495.50511	-448.73064	1004.24508	1513.96877	-245.11337	1012.76232	1492.15221	-297.86894	777.04366	1400.65964	12.04084	724.03605	1302.75139	-39.23556	728.01608	1328.44508	39.53254	766.44190	1183.37242	104.32611	790.63021	1073.85721	129.35690	747.57171	1082.30037	140.28181	961.57845	1242.43774	-532.10418	908.96612	1145.18093	-483.11621	939.70861	1153.70306	-545.49755	1026.21617	1002.53038	-562.16288	1078.94473	919.67553	-551.57956	1045.20317	903.65461	-567.31834	882.37917	977.29734	-38.84551	890.05796	976.69697	-269.08314	896.87894	978.66705	-68.72479	897.01185	979.97687	-238.97083	
95	0.94000000	1018.82944	554.71468	-11.05929	991.38042	477.36858	0.03739	714.14081	252.53126	-62.39569	643.64268	250.23059	-121.45268	772.38329	105.45268	-16.85706	824.08500	105.08315	-67.74571	936.02653	539.77271	-310.67252	961.08745	418.84774	-320.57406	890.78782	95.21693	-293.98997	818.97671	54.29758	-259.33358	1047.45082	31.03431	-317.24179	1063.16088	58.90908	-249.93019	912.67206	395.25752	-5.28799	934.92061	530.06850	6.61650	849.71063	452.74170	-6.49729	872.53532	433.28090	-335.61425	866.14021	312.99480	-334.32386	998.92464	870.39520	17.97416	1045.06818	770.67584	11.78657	1000.41072	723.23172	36.38126	896.04113	822.26069	17.30002	947.14910	717.75057	18.57182	983.48385	866.70365	-336.83669	1000.66196	729.87846	-333.08130	868.24333	849.27691	-342.48839	894.12769	710.96856	-340.38021	982.09831	1050.42884	-32.78351	795.36931	1103.85789	-112.00361	991.05814	1047.60704	-290.53123	795.11969	1104.58597	-214.62497	875.94902	1575.20749	-328.55662	906.68358	1604.07690	-144.36334	968.61508	1497.85006	-448.30219	1013.99867	1514.85937	-244.79329	1022.46075	1493.46606	-297.68544	787.26990	1399.86202	12.08816	734.57930	1302.17967	-39.81204	738.21539	1327.55603	39.20824	776.55502	1182.46930	104.01350	800.87209	1072.99357	129.06728	757.78738	1081.32413	139.71602	974.23894	1245.23634	-533.02507	924.17654	1146.44195	-484.09367	954.46142	1156.01749	-546.66360	1045.75560	1007.58913	-563.60757	1101.23094	926.56618	-553.10683	1067.73854	909.71851	-568.95344	892.93539	978.00584	-39.34855	899.53466	977.04355	-269.61883	907.22518	979.16350	-69.54519	906.81091	980.37090	-239.76476	
96	0.95000000	1034.32041	556.80860	-12.47648	1009.45479	478.48813	-1.01923	740.77342	243.00908	-63.01759	670.32096	235.94715	-122.07241	807.40172	99.96201	-16.34520	858.84174	102.15855	-67.35188	939.51529	539.50659	-310.68974	963.78064	418.47328	-320.00989	891.11946	95.41027	-293.68378	819.07518	54.51685	-259.27707	1047.43436	30.89054	-317.40658	1063.27074	58.54244	-249.93311	933.78148	393.52004	-6.21817	951.07372	529.09027	5.39494	868.78935	448.75630	-7.53246	875.60072	433.40482	-335.67751	868.43535	313.17307	-334.44464	1011.64902	872.59822	16.77671	1058.86346	773.39659	10.33470	1015.15895	725.55625	35.54888	909.27264	823.09383	17.42801	961.67175	719.48495	18.47385	991.30016	865.91208	-337.45626	1006.80600	728.92961	-333.44017	875.92894	850.04441	-342.77899	899.78217	711.49865	-340.51993	992.66961	1050.99160	-33.88615	805.64641	1104.41081	-112.23405	1000.56597	1047.64208	-291.64818	805.03844	1105.08397	-214.87136	885.38084	1576.53678	-327.37360	916.41665	1604.18832	-143.20659	977.57606	1500.18044	-447.74495	1023.76051	1515.70101	-244.38792	1032.16926	1494.72822	-297.44005	797.57893	1398.90854	12.25332	745.20522	1301.41988	-40.22612	748.56747	1326.47599	39.01354	786.85411	1181.34554	103.72869	811.28742	1071.88130	128.73141	768.16863	1080.12184	139.16640	986.86128	1248.06410	-533.79319	939.32692	1147.83506	-484.90655	969.13473	1158.41694	-547.65728	1065.05345	1012.84493	-564.86910	1123.16796	933.71792	-554.47323	1089.92096	916.11043	-570.39941	903.44271	978.62113	-39.86754	909.00145	977.26710	-270.16375	917.57805	979.52764	-70.34580	916.56988	980.64365	-240.55316	
97	0.96000000	1049.39040	558.67365	-13.84810	1027.30435	479.38275	-2.05766	768.23526	232.91559	-63.51544	698.10487	221.18230	-122.51186	842.90206	94.23546	-15.82698	893.97894	98.98078	-67.00459	943.10606	539.17228	-310.52586	966.64547	418.04459	-319.25235	891.43216	95.64829	-293.26567	819.13976	54.78956	-259.22558	1047.45137	30.81286	-317.50036	1063.39368	58.21690	-249.89040	954.98308	391.47175	-7.07730	966.93185	527.64300	4.25926	887.94023	444.19247	-8.38300	878.86320	433.47372	-335.68506	870.89845	313.30374	-334.46941	1024.09134	874.58696	15.58118	1072.25791	775.85321	8.87607	1029.45302	727.65812	34.61925	922.19843	823.84752	17.39037	975.75890	721.09052	18.21425	999.15746	864.95917	-337.97623	1013.03083	727.88734	-333.54735	883.66774	850.71540	-343.06505	905.49294	711.93233	-340.53685	1003.21237	1051.43784	-34.98310	815.92664	1104.89117	-112.53042	1010.11991	1047.49957	-292.76530	814.94663	1105.51143	-215.19261	894.80689	1577.82552	-326.05119	926.17491	1604.17759	-141.91220	986.43585	1502.48096	-447.06328	1033.54244	1516.51378	-243.88566	1041.89140	1495.94201	-297.12607	807.94988	1397.80981	12.53281	755.95592	1300.39851	-40.41139	759.06193	1325.21061	38.94402	797.34735	1180.01522	103.47430	821.88830	1070.53338	128.35594	778.73629	1078.70542	138.63920	999.45325	1250.90646	-534.40084	954.41074	1149.33835	-485.55485	983.73161	1160.88801	-548.47398	1084.09472	1018.26580	-565.94095	1144.73140	941.07471	-555.65299	1111.76216	922.76749	-571.64473	913.88718	979.15189	-40.40143	918.46732	977.35756	-270.71656	927.92508	979.76198	-71.13048	926.30082	980.79006	-241.33334	
98	0.97000000	1064.02067	560.26858	-15.20128	1044.88980	480.05746	-3.08447	796.54189	222.35670	-63.84720	726.98309	206.12802	-122.72962	878.82926	88.37165	-15.25110	929.44593	95.60765	-66.67767	946.82851	538.77656	-310.20301	969.67588	417.55536	-318.33478	891.71487	95.92276	-292.74677	819.18572	55.08849	-259.15105	1047.49438	30.79008	-317.52089	1063.52294	57.93406	-249.79855	976.27245	389.14329	-7.86039	982.47495	525.71414	3.19808	907.18325	439.04796	-9.08260	882.30288	433.50419	-335.68147	873.49916	313.38857	-334.40266	1036.19578	876.32264	14.41949	1085.20610	778.02081	7.43606	1043.19510	729.49721	33.61782	934.74835	824.50968	17.17055	989.35814	722.53554	17.78289	1007.08458	863.85486	-338.35923	1019.34394	726.76015	-333.39238	891.45171	851.26463	-343.34408	911.31836	712.24269	-340.44252	1013.71731	1051.77571	-36.06514	826.20578	1105.29454	-112.90331	1019.72786	1047.16973	-293.86491	824.86518	1105.85456	-215.59962	904.25161	1579.06472	-324.59852	935.97950	1604.04151	-140.47996	995.16523	1504.73579	-446.26734	1043.34728	1517.29570	-243.28357	1051.63098	1497.10400	-296.73642	818.38380	1396.56465	12.92006	766.86821	1299.09135	-40.35675	769.68969	1323.76540	38.98951	808.03650	1178.49196	103.25399	832.68074	1068.96571	127.95028	789.50688	1077.08656	138.13926	1012.01252	1253.75097	-534.83913	969.42711	1150.92803	-486.03464	998.24968	1163.41745	-549.11018	1102.86639	1023.82172	-566.81519	1165.90342	948.58209	-556.62383	1133.27061	929.62324	-572.67942	924.26322	979.60269	-40.94092	927.94918	977.30248	-271.26785	938.24943	979.87218	-71.90134	936.02838	980.80020	-242.10259	
99	0.98000000	1078.17131	561.56469	-16.56252	1062.15988	480.52346	-4.11235	825.69106	211.46676	-63.97226	756.92925	190.96048	-122.69822	915.14569	82.47732	-14.57686	965.20554	92.12361	-66.33555	950.69454	538.32993	-309.77228	972.85136	417.00625	-317.31647	891.96328	96.22109	-292.15926	819.22584	55.38996	-259.03638	1047.55153	30.80939	-317.47887	1063.65084	57.69553	-249.66511	997.63038	386.58420	-8.56807	997.68444	523.31009	2.19019	926.52101	433.35574	-9.67466	885.87818	433.51991	-335.72465	876.19300	313.43631	-334.27163	1047.93102	877.77508	13.32067	1097.68506	779.87540	6.03702	1056.33475	731.04578	32.56021	946.87284	825.05999	16.77983	1002.43210	723.79108	17.18121	1015.11622	862.62951	-338.57315	1025.75070	725.56589	-332.99637	899.28383	851.67732	-343.61567	917.31317	712.41443	-340.26745	1024.17838	1052.01491	-37.11743	836.47687	1105.61293	-113.35257	1029.39780	1046.65024	-294.92620	834.82032	1106.09379	-216.08836	913.72774	1580.24179	-323.02157	945.85024	1603.77501	-138.91459	1003.76748	1506.93007	-445.36901	1053.17202	1518.02424	-242.58750	1061.39413	1498.20509	-296.26467	828.90209	1395.16411	13.40642	777.96011	1297.52991	-40.10815	780.44455	1322.14528	39.13628	818.91749	1176.78748	103.07187	843.66762	1067.19548	127.52525	800.48930	1075.27644	137.67049	1024.52897	1256.58959	-535.09897	984.37800	1152.58307	-486.34185	1012.68201	1165.99329	-549.56451	1121.35645	1029.48552	-567.48352	1186.66615	956.18937	-557.36882	1154.45330	936.60805	-573.49447	934.57331	979.97559	-41.47029	937.46775	977.09193	-271.80191	948.53108	979.86678	-72.65994	945.78745	980.66344	-242.85974	
